<?xml version="1.0" encoding="utf-8"?>
<!-- Generator: Adobe Illustrator 15.1.0, SVG Export Plug-In . SVG Version: 6.00 Build 0)  -->
<!DOCTYPE svg PUBLIC "-//W3C//DTD SVG 1.1//EN" "http://www.w3.org/Graphics/SVG/1.1/DTD/svg11.dtd">
<svg version="1.1" id="Layer_1" xmlns="http://www.w3.org/2000/svg" xmlns:xlink="http://www.w3.org/1999/xlink" x="0px" y="0px"
	 width="970.903px" height="75" viewBox="0 0 970.903 773.452" enable-background="new 0 0 970.903 773.452"
	 xml:space="preserve">
<path fill="#E6E7E8" d="M13.462,28.41c11.453,0,44.663-1.145,54.968,0c10.305,1.145,29.773,6.868,35.5-9.164
	c5.726-16.028,53.814-25.191,83.587-14.883c29.779,10.305,53.82,26.339,68.71,51.528c14.884,25.191,37.789,80.157,58.399,101.914
	c20.616,21.758,46.953,37.792,64.131,42.371c17.173,4.579,13.736,16.031,20.61,19.465c6.868,3.438,62.978,33.21,124.813,37.789
	c61.836,4.582,200.398,29.776,253.07,25.195c52.673-4.582,93.898-105.722,90.462-141.036c-3.431-35.312-56.109-60.506-42.368-79.971
	c13.742-19.465,28.626-25.192,69.852,10.305c41.227,35.5,49.242,54.965,21.758,112.223
	c-27.483,57.254-49.235,110.503-91.609,134.264c-13.741,10.018,11.453,35.21,22.906,37.502c11.446,2.292,18.32,44.66,24.047,93.898
	c5.72,49.242,17.173,90.465,40.078,103.062c22.899,12.594,42.367,22.902,45.805,32.062c13.742,9.16,14.884,21.758,10.305,44.66
	c-4.578,22.902-25.194,119.093-27.484,127.105c-2.289,8.016-19.468,21.758-37.788,14.887c0,0-40.079-1.145-40.079-11.449
	c0-10.309,0-33.211,16.031-32.066c-11.452-11.449,17.174-32.06,32.063-36.641c-1.142-17.177,6.868-25.195-3.438-38.934
	c-10.305-13.742-70.993-58.399-99.625-74.434c-28.626-16.031-44.657-45.805-58.398-70.996
	c-13.742-25.192-127.109-51.531-235.892-19.469c-108.788,32.065-137.414,37.792-143.14,32.065
	c-2.29,25.188,1.147,127.106,5.726,136.267c4.579,9.16,2.29,14.887-3.437,25.194c-5.727,10.306-12.595,53.82-14.884,68.704
	c-9.164,10.309-52.679,9.163-60.694,6.871c-8.016-2.289-36.642,2.289-26.336-19.469c-16.031-5.723-24.047-20.609-4.579-32.059
	c19.462-11.453,29.773-8.017,32.062-13.742c2.29-5.727,5.727-146.578-13.742-191.234c-37.789-20.613-90.461-69.852-82.446-152.301
	c6.868-77.867-90.461-177.492-104.204-179.782c-13.742-2.289-26.336-1.145-33.21-18.321C52.399,148.648-26.616,111.43,13.462,28.41z
	"/>
<path fill="#A97C50" d="M867.654,151.813c-3.527,41.438-42.165,126.616-90.402,130.812c-11.058,0.962-25.918,0.717-43.037-0.585
	c-7.836-0.595,14.501,12.322,0,23.488c-14.501,11.163-37.891,36.071-1.721,75.575c36.175,39.508,48.195,36.074,69.666,31.779
	s30.061,2.576,36.928,13.742c6.874,11.162,46.379,9.447,14.604-36.074c-31.776-45.518-34.615-37.801-32.338-64.418
	s30.622-30.894,30.622-51.516c0-20.619,27.789-21.59,22.325-65.279C868.748,164.934,867.654,151.813,867.654,151.813z"/>
<path fill="#A97C50" d="M434.066,235.38c-19.498-5.278-31.638-14.206-34.699-15.739c-6.874-3.434-3.437-14.886-20.61-19.465
	c-17.179-4.579-43.515-20.613-64.131-42.371c-8.356-8.822-17.089-23.105-25.517-38.649c-12.35-22.789-24.029-48.288-32.882-63.265
	c-14.89-25.188-38.931-41.223-68.71-51.528c-29.773-10.308-77.861-1.145-83.587,14.883c-1.13,3.162-2.792,5.479-4.818,7.149
	c0,0-22.092,26.632,1.955,42.95s-12.026,38.65,1.715,61.265c13.742,22.616,20.323,25.192,54.107,28.342
	c33.778,3.15,22.899,57.542,38.931,79.87c16.031,22.332,29.773,25.766,33.21,34.926c3.437,9.16-33.21,39.505-8.876,68.42
	c24.333,28.916,61.28,148.463,64.699,158.027c3.425,9.561,11.041,39.803,10.526,46.665c-0.508,6.862,65.052,2.28,73.928-60.987
	c0.281-32.35-4.872-33.778,4.292-36.641c9.158-2.863,50.485,5.663,97.91-20.895C538.605,390.768,495.388,251.973,434.066,235.38z"/>
<path fill="#8B5E3C" d="M192.676,73.07c-7.042,11.925-45.231,73.856-47.526,89.891c-2.289,16.031-5.72,49.242,3.437,60.691
	c9.164,11.45,32.063,22.329,80.73-7.445c48.668-29.773,48.668-68.704,37.789-114.509c-10.879-45.808-57.257-67.565-61.836-57.831
	S197.362,65.12,192.676,73.07z"/>
<path fill="#231F20" d="M13.462,24.402C7.168,24.653-5.008,37.571,2.225,49.023c7.232,11.45,24.405-9.163,26.701-12.31
	C31.215,33.562,27.778,23.832,13.462,24.402z"/>
<path fill="#231F20" d="M289.109,119.156c0,0,17.161,29.827,25.517,38.649c20.616,21.758,46.953,37.792,64.131,42.371
	c17.173,4.579,13.736,16.031,20.61,19.465c6.868,3.438,62.978,33.21,124.813,37.789c38.482,2.854,106.679,13.686,165.395,20.359
	c0,0-29.982-0.604-21.394,25.162c8.59,25.762-6.013,18.892-8.589,44.657c-2.576,25.766-10.306,52.389,5.152,66.992
	c15.457,14.6,37.789,35.209-26.623,36.07c-64.412,0.857-123.672,36.928-116.798-20.613c6.868-57.541-76.439,40.365-105.639-25.766
	c-29.199-66.131,18.895-136.553-24.908-155.448c-43.802-18.894-0.861-38.646-33.491-28.341
	c-32.636,10.305-36.934,21.471-53.252-3.438C287.716,192.161,258.726,138.044,289.109,119.156z"/>
</svg>
